<svg xmlns="http://www.w3.org/2000/svg" xmlns:xlink="http://www.w3.org/1999/xlink" width="600" height="815.116"><g transform="translate(96.384 558.45)"><path d="M203.616 251.566c85.56 0 167.416-6.8 215.422-20.3 20.315-3.7 20.315-14.2 20.315-27.7 20.315-6.8 9.845-30.8 24-30.8-14.155 3.7-17.228-24-34.462-20.3 0-24-24.005-27-44.315-20.3-40.626 13.6-112.637 16.6-180.957 16.6-68.316-3-139.716-3-180.955-16.6-20.31-6.7-44.305-3.7-44.305 20.3-17.238-3.7-20.315 24-34.467 20.3 14.152 0 3.688 24 24 30.8 0 13.5 0 24 20.927 27.7 47.384 13.5 129.25 20.3 214.797 20.3z" fill="#f8c300" fill-rule="evenodd" stroke="#000" stroke-width="10.2" stroke-linecap="round" stroke-linejoin="round"/><path d="M207.07-140.634l293.821 272.8-20.918-495.37c-3.073-75.08-68.316-57.85-115.708-30.77-48.011 30.77-102.78 30.77-160.646 10.45-57.853 20.32-112.63 20.32-160.641-10.45-47.388-27.08-112.625-44.31-115.706 30.77l-20.931 495.37z" fill="#f8c300" fill-rule="evenodd" stroke="#000" stroke-width="5.45" stroke-linecap="round" stroke-linejoin="round"/><use xlink:href="#a" height="600" width="900" transform="matrix(-1 0 0 1 407.237 .004)" fill-rule="evenodd"/><path d="M217.16-86.334l41.239 187.8-13.547 13.5-14.154-10.5-23.39-167.4 9.849 167.4-13.544 17.3-13.54-17.3 9.85-167.4-23.384 167.4-14.167 10.5-13.533-13.5 41.234-187.8h27.086z" fill-rule="evenodd" stroke="#000" stroke-width="4.607" stroke-linecap="square"/><path id="b" d="M-38.885-380.444l-20.31 481.91-34.47 30.7 20.93-495.37c9.845-6.77 27.084-17.24 33.85-17.24z" fill-rule="evenodd" stroke-width="0"/><path id="c" d="M2.35-345.984l-17.235 403.05-34.459 35.3 20.924-465.42c6.774 6.77 27.087 23.38 30.77 27.07z" fill-rule="evenodd" stroke-width="0"/><path id="d" d="M39.895-315.234l-13.533 336.2-27.695 27.1 17.236-383.6c6.756 6.8 20.297 16.6 23.992 20.3z" fill-rule="evenodd" stroke-width="0"/><path id="e" d="M80.52-297.934l-13.54 286.5-27.085 21.9 13.541-318.9c6.775 3.1 20.313 10.5 27.085 10.5z" fill-rule="evenodd" stroke-width="0"/><path id="a" d="M118.07-297.934l-9.857 238.7-27.69 27.1 10.465-262.8c6.761 0 23.997 0 27.082-3z" fill-rule="evenodd" stroke-width="0"/><use xlink:href="#b" height="600" width="900" transform="matrix(-1 0 0 1 407.222 -.004)" fill-rule="evenodd"/><use xlink:href="#c" height="600" width="900" transform="matrix(-1 0 0 1 407.24 -.004)" fill-rule="evenodd"/><use xlink:href="#d" height="600" width="900" transform="matrix(-1 0 0 1 407.246 -.004)" fill-rule="evenodd"/><use xlink:href="#e" height="600" width="900" transform="matrix(-1 0 0 1 407.232 -.004)" fill-rule="evenodd"/><path d="M111.295-168.734l-81.854 290.5 112.636 17.2 47.998-218.5zM295.945-168.734l81.851 290.5-112.626 17.2-48.01-218.5z" fill="#f8c300" fill-rule="evenodd" stroke="#000" stroke-width="5.1" stroke-linecap="round" stroke-linejoin="round"/><use xlink:href="#f" height="300" width="218" transform="matrix(-1 0 0 1 407.212 .004)" fill-rule="evenodd"/><use xlink:href="#g" height="300" width="218" transform="matrix(-1 0 0 1 406.344 .004)" fill-rule="evenodd"/><path id="f" d="M84.213-69.634l9.849 24 53.218-50.9" fill="none" fill-rule="evenodd" stroke="#000" stroke-width="5.45" stroke-linecap="round" stroke-linejoin="round"/><path id="i" d="M121.083-129.834l11.136 104.5 33.85-44.3" fill="none" fill-rule="evenodd" stroke="#000" stroke-width="5.45" stroke-linecap="round" stroke-linejoin="round"/><path id="j" d="M152.532-52.434l18.49 63.8" fill="none" fill-rule="evenodd" stroke="#000" stroke-width="5.45" stroke-linecap="round" stroke-linejoin="round"/><path id="g" d="M178.264-12.034l-37.4 56.8m11.665 56.7l-11.97-56.7-10.45-57.6-25.056 34-10.989-39.1-35.07 35.9 17.836 65.5 24.614-40.5 13.539 41.2 25.27-39.3" fill="none" fill-rule="evenodd" stroke="#000" stroke-width="5.451" stroke-linecap="round" stroke-linejoin="round"/><path id="h" d="M53.436 114.966l22.736-31.9 14.813 49.1 20.31-34.5 13.546 41.3" fill="none" fill-rule="evenodd" stroke="#000" stroke-width="5.45" stroke-linecap="round" stroke-linejoin="round"/><use xlink:href="#h" height="300" width="218" transform="matrix(-1 0 0 1 408.147 -.004)" fill-rule="evenodd"/><path d="M87.292 121.766c27.69 3.6 58.468 6.7 82.478 3.6 13.528 0 23.379 23.4-3.7 27.1-23.995 3.1-61.544 0-81.857-3.7-17.233-3-54.774-9.8-78.785-16.6-24.003-10.4-6.761-30.7 6.767-27.7 20.931 6.8 48.016 13.6 75.097 17.3zM319.945 121.766c-27.7 3.6-58.465 6.7-81.86 3.6-14.159 0-24.007 23.4 3.077 27.1 24.006 3.1 61.55 0 81.849-3.7 17.241-3 54.782-9.8 78.782-16.6 24.011-10.4 6.78-30.7-6.766-27.7-20.926 6.8-48.006 13.6-75.082 17.3z" fill="#f8c300" fill-rule="evenodd" stroke="#000" stroke-width="5.45" stroke-linecap="round" stroke-linejoin="round"/><path d="M2.348 108.166c-20.923-3.7-30.77 20.3-23.994 33.9 3.073-6.8 17.231-6.8 20.312-13.6 3.682-10.4-3.08-10.4 3.682-20.3zM84.21 171.166c0-13.6 13.534-11.9 13.534-25.4 0-6.8-3.685-17.3-10.454-17.3-6.772 0-13.546 6.8-13.546 13.6-3.08 13.5 10.467 15.5 10.467 29.1zM181.64 132.166c20.294 0 18.283 27.1 8.433 40.6 0-9.8-17.231-13.5-17.231-20.3 0-10.4 15.556-10.4 8.798-20.3zM404.882 108.166c20.925-3.7 30.777 20.3 24.004 33.9-3.081-6.8-17.234-6.8-20.31-13.6-3.694-10.4 3.079-10.4-3.694-20.3zM323.01 171.166c0-13.6-13.527-11.9-13.527-25.4 0-6.8 3.687-17.3 10.46-17.3 6.766 0 13.54 6.8 13.54 13.6 3.08 13.5-10.472 15.5-10.472 29.1zM225.595 132.166c-20.302 0-18.289 27.1-8.44 40.6 0-9.8 17.228-13.5 17.228-20.3 0-10.4-15.557-10.4-8.788-20.3z" fill="#f8c300" fill-rule="evenodd" stroke="#000" stroke-width="5.45" stroke-linecap="round" stroke-linejoin="round"/><path d="M9.124 114.966c6.779 0 17.236 3.1 20.315 6.8zM42.972 125.366c3.698 0 17.24 3.1 24.007 6.8zM166.07 138.966c-6.768 0-20.31 0-23.994 3.1zM128.524 138.966c-3.684-3.7-17.23-3.7-23.996 0z" fill="none" stroke="#000" stroke-width="3.825" stroke-linecap="round" stroke-linejoin="round"/><path d="M398.113 114.966c-6.768 0-16.622 3.1-20.314 6.8zM364.262 125.366c-3.69 0-17.233 3.1-24.004 6.8zM241.165 138.966c6.776 0 20.314 0 24.004 3.1zM278.708 138.966c3.69-3.7 17.239-3.7 24.004 0z" fill="#fff" fill-rule="evenodd" stroke="#000" stroke-width="3.825" stroke-linecap="round" stroke-linejoin="round"/><use xlink:href="#i" height="300" width="218" transform="matrix(-1 0 0 1 407.889 -.004)" fill-rule="evenodd"/><use xlink:href="#j" height="300" width="218" transform="matrix(-1 0 0 1 405.887 -.004)" fill-rule="evenodd"/><path d="M3.422 169.066c-2.29-.5-3.494-2.3-2.917-4.4.702-2.6 2.795-4.1 4.773-3.4 1.257.4 3.56 2.7 3.568 3.6.011.9-1.203 3.2-1.727 3.2-.226 0-.576.2-.778.4-.429.5-1.773.8-2.919.6zm235.641 16.8c-.852-.3-2.21-2.2-2.209-3.1.01-1.7 2.464-4.4 3.985-4.4.752 0 2.81 1.1 3.579 1.9 1.394 1.4 1.09 3.8-.662 5.2-.862.6-3.433.9-4.693.4zm1.56 10.6c-1.803-.6-2.463-1.4-2.61-3.4-.152-2.1.05-2.5 2.251-3.7l1.568-.8 1.487.7c2.058.9 2.974 1.9 3.047 3.2.078 1.5-1.028 3.1-2.746 3.8-1.509.7-1.598.7-2.998.2zm-232.781-13.1c1.103-1 1.124-1.9.053-2.4-.677-.3-1.073-.2-2.408.4-1.343.7-1.583.9-1.51 1.6.083.7.66.9 2.666 1.1.177 0 .717-.3 1.199-.7zm36.172 18.9c-.972-.3-3.367-.9-5.323-1.3-4.51-.9-11.504-2.4-13.396-3-.799-.3-2.25-.6-3.226-.9-1.792-.4-2.713-.6-5.65-1.6-.887-.3-3.066-.9-4.84-1.3-1.775-.5-3.848-1.1-4.609-1.4-.76-.3-1.66-.6-1.998-.6-.34 0-1.099-.2-1.687-.5-.589-.4-2.001-.7-3.139-.8-2.377-.2-4.148-1.1-5.156-2.4-.855-1.2-.876-2.1-.084-3.7.335-.7.61-1.5.613-1.8 0-.3.292-.8.643-1.1.35-.3.636-.7.635-.8 0-.4 1.492-2.6 2.375-3.5 1.16-1.2 3.559-2.3 4.915-2.4.798 0 1.499-.2 1.843-.5.383-.4 1.256-.6 2.801-.7l2.245-.2.876-1.6c.482-.8.882-1.9.89-2.5.01-.5.234-1.3.505-1.8.27-.5.685-1.8.922-2.8.897-3.9 1.546-6 1.93-6.4.56-.5.505-.8-.462-2-.523-.6-1.132-1-1.572-1-1.073 0-2.833.6-3.386 1.2-1.103 1.2-2.562 1.9-3.671 1.9-1.529.1-3.493-1-4.225-2.3-.576-1-.573-1.1.096-2.4.436-.9 1.006-1.5 1.567-1.8 1.333-.5 4.738-.2 5.525.5.557.4.97.5 2.753.3 1.154-.2 2.168-.4 2.255-.5.087-.1.797-.4 1.579-.5.781-.1 1.496-.4 1.588-.6.092-.3.676-.6 1.297-.7.621-.1 1.295-.4 1.497-.6.203-.3.781-.5 1.286-.5.708 0 1.042.2 1.464 1 .482.9.5 1.2.159 3-.214 1.1-.653 2.6-.976 3.2-.323.6-.582 1.7-.574 2.3.01.8-.222 1.5-.623 2-.35.4-.632 1-.628 1.4 0 .4-.214.9-.484 1.2-.271.2-.642 1.3-.825 2.4-.184 1.1-.51 2.2-.727 2.6-.217.3-.482 1.2-.59 2-.108.8-.404 1.6-.658 1.8-.255.3-.458.9-.452 1.4.01.5-.254 1.5-.577 2.1-.323.6-.68 1.9-.793 2.8-.114.9-.39 1.9-.616 2.2-.225.4-.507 1.4-.626 2.2-.119.9-.425 1.9-.68 2.3-.419.6-.4.8.19 1.5.953 1.3 3.748 2.2 6.595 2.2 2.215 0 2.336-.1 3.13-1.1.479-.5.914-1.6 1.038-2.4.117-.8.416-1.9.664-2.4.249-.4.444-1.6.434-2.6-.015-1.6-.096-1.8-1.168-2.6-1.064-.8-1.122-1-.771-1.7.36-.8 1.822-1.5 3.202-1.5.286 0 .862-.3 1.28-.6.42-.3 1.075-.7 1.457-.8.383-.1 1.244-.7 1.913-1.3 1.405-1.3 2.273-1.3 2.984-.1.443.7.439 1-.046 2.3-.296.8-.531 2.1-.522 2.9.01.7-.182 1.6-.425 1.8-.243.3-.585 1.2-.76 1.9-.175.8-.534 2-.797 2.7-.264.6-.48 1.8-.48 2.4 0 .7-.284 1.8-.63 2.5-.912 1.8-.797 2.8.358 3.4.266.1.849.4 1.294.6.445.3 1.388.5 2.096.5.708 0 1.914.2 2.68.5.767.4 2.31.7 3.43.8 1.993.2 2.053.2 2.943-.8.557-.6 1.061-1.7 1.304-2.8.218-.9.478-2 .578-2.4.308-1.2-.205-2.7-1.209-3.7-1.765-1.6-1.032-3.8 1.287-3.8 1 0 3.716-1.1 4.432-1.8 1.937-1.8 3.146-2.3 4.328-1.7.935.5 1.237 1.8.654 2.8-.242.4-.636 1.6-.875 2.6s-.722 2.9-1.072 4.1c-.35 1.2-.86 3.3-1.132 4.6-.272 1.4-.764 3.3-1.094 4.3-.33 1-.596 2.1-.592 2.4 0 .3-.297 1.3-.667 2.1-1.079 2.5-2.678 3-6.037 1.9zm-41.515.1c-2.128-2-1.785-3.4 1.361-5.8 1.347-1 2.164-.9 3.703.5 2.37 2.2 2.465 3.6.373 5.4-1.034.9-1.486 1.1-2.69 1.1-1.259.1-1.615-.1-2.747-1.2zm13.076 4c-2.08-.5-3.28-2.6-2.67-4.7.55-1.8.87-2 3.604-2 3.067-.1 3.662.5 3.691 3.2.016 1.5-.1 1.8-.856 2.5-.889.9-2.597 1.3-3.769 1zm382.278.3c-.974-.8-1.17-1.1-1.181-2.2-.015-1.7 1.002-3 3.2-4 2.926-1.3 4.118-1.2 5.22.8 1.465 2.6 1.395 3.6-.36 5.4-.968.9-1.15 1-3.367 1-2.178 0-2.427 0-3.512-1zm-364.907 5c-1.561-.4-2.37-1.6-2.391-3.5-.016-1.4.086-1.6 1.088-2.4.649-.5 1.674-1 2.482-1.1 1.145-.1 1.563 0 2.485.6 2.362 1.7 2.863 3.3 1.496 4.9-1.457 1.7-2.838 2.1-5.16 1.5zm94.029 4.2l-1.203-1 .163-2.6c.09-1.4.376-3.2.635-3.8.26-.7.467-2.3.462-3.5-.01-1.2.193-2.8.44-3.6.249-.7.659-3.4.912-6 .254-2.6.596-5.1.762-5.5.165-.5.292-1.6.281-2.6-.01-.9.242-2.6.56-3.8.37-1.3.578-3.1.573-4.9 0-1.6.14-3.4.32-4 .18-.6.324-1.4.32-1.8-.01-.8 1.098-2.6 1.585-2.6.156 0 .808.8 1.451 1.7.643.9 1.933 2.3 2.868 3.2 4.123 3.8 3.94 3.5 2.6 4.7-.49.5-1.038.9-1.217.9-.178 0-.709.4-1.18.9-.708.7-.854 1.1-.85 2.5 0 .9-.218 2.3-.489 2.9-.447 1.2-.906 5.3-1.07 9.8-.036.9-.198 1.9-.363 2.1-.165.3-.362 2.5-.438 5-.076 2.5-.27 4.7-.433 5-.163.2-.307 1-.32 1.6-.047 2.6-.599 4.8-1.353 5.6-.592.6-1.06.8-2.279.8-1.296 0-1.722-.1-2.737-1zm124.636-2.9l1.678-.5-.114-1.6-.114-1.6h-1.34c-1.12-.1-1.475 0-2.173.8-1.237 1.3-1.377 2.2-.435 2.9.427.3.786.5.798.5.014 0 .778-.2 1.7-.5zm-9.773 6.7c-.675-.9-.704-1.1-.394-2.8.184-1.1.353-2.8.375-3.9.017-1.1.209-2.3.414-2.7.206-.4.369-1.1.363-1.7-.014-.8.275-1.3 1.262-2.3.7-.6 1.272-1.3 1.27-1.5 0-.4 2.509-2.4 3.04-2.4.206 0 .633-.2.95-.6.316-.3.964-.6 1.44-.6s1.247-.3 1.712-.7c.796-.7.845-.9.818-3.4-.014-1.7-.235-3.3-.548-4.1-.285-.8-.487-1.8-.45-2.1.037-.4-.06-2.2-.215-3.9-.254-2.9-.377-3.4-1.126-4.1-.463-.5-1.022-.9-1.242-.9-.404 0-1.92-1.7-1.708-2 2.216-2.3 6.164-6 6.606-6.2.906-.3 2.27.3 2.617 1.2.172.4.411 2.3.533 4.1.123 1.8.371 4.2.553 5.2.182 1 .5 4.2.707 7.1.208 2.9.521 5.7.697 6.3.175.6.436 3.2.58 5.9.142 2.6.406 5.3.586 5.9.617 2.3 3.205 3.6 5.047 2.7.305-.2 1.682-.5 3.059-.7 3.203-.5 3.26-.6 2.976-5.2-.198-3.2-.301-3.6-1.075-4.6-.47-.5-1.216-1.1-1.656-1.2-.883-.2-1.435-1-1.446-2 0-.7 1.655-2.3 2.698-2.7.357-.1 1.314-.7 2.128-1.4 1.82-1.5 3.019-1.6 4.149-.4.724.8.804 1.2 1.046 5.4.186 3.2.412 4.7.787 5.4.384.6.537 1.7.563 4 .014 2.1.2 3.5.55 4.3.454 1 .461 1.3.06 2.1-.25.5-.548 1.3-.66 1.7-.262.8-.749 1-3.708 1.1-1.327 0-2.99.2-3.696.4s-2.586.4-4.178.4c-6.794.2-16.075.9-16.58 1.4-.377.3-1.466.5-4.339.5h-3.835l-.73-1zm-144.904-25.5c.85-.6.918-1.4.135-1.6-.992-.2-1.796-1.6-1.864-3.1-.124-2.9-1.439-3-3.883-.5-.705.7-1.779 1.7-2.387 2.1l-1.106.9.804.8c1.346 1.3 2.85 1.9 5.33 1.9 1.573 0 2.477-.1 2.971-.5zm9.977 30.6c-.488-.2-.889-.4-.89-.5 0-.3-3.052-2.2-3.521-2.2-.193 0-.436-.3-.54-.8-.104-.5-.491-1.8-.86-2.9-.649-1.9-.639-3.4.024-3.8.48-.3.304-1.3-.33-1.8-.387-.4-1.398-.6-2.823-.7-3.025-.2-3.371-.3-4.436-1.2-.76-.6-.976-1.1-1.208-2.8-.166-1.1-.518-2.2-.85-2.6-.59-.6-1.592-.7-1.887-.3-.094.2-.609.4-1.145.5-.655.1-1.077.5-1.283 1-.17.4-.682 1.3-1.14 1.9-.793 1-.92 1-2.893 1.1-1.135 0-2.546-.2-3.136-.4-1.266-.5-2.663-.7-6.16-1-5.016-.3-7.336.1-7.724 1.3-.537 1.6-4.59 5.1-6.359 5.4-.708.1-1.91.4-2.673.7-.763.2-1.527.3-1.697.2-.171-.1-1.865-.3-3.764-.6-3.586-.4-4.907-1-4.92-2.2-.01-.7 2.194-1.8 3.04-1.5.912.3 2.417.3 2.413-.1 0-.1.78-.4 1.737-.6.958-.2 1.913-.6 2.122-.8.21-.3.801-.5 1.314-.5.761 0 1.107-.3 1.875-1.5.519-.8.94-1.6.938-1.9 0-.2.28-.7.63-1.2.378-.5.63-1.2.622-1.9-.01-.7.205-1.8.47-2.5.454-1.3.44-1.5-.257-3.5-.406-1.2-.92-2.3-1.142-2.4-.222-.2-.577-.8-.79-1.3-.56-1.6.043-3 2.322-5.5.24-.2.534-.9.652-1.4.222-1.1.944-1.7 2.036-1.7.802 0 2.32 1.7 2.33 2.6 0 .3.242 1 .529 1.4.316.4.642 1.8.826 3.5.315 2.9.833 5.9 1.22 7.1.33 1 2.083 2.3 3.029 2.3.454 0 1.697.2 2.762.5 1.064.2 2.771.4 3.793.4 1.852 0 1.864 0 3.76-1.9 1.045-1.1 1.895-2.1 1.887-2.3-.049-1.2-4.191-3.5-7.526-4-1.167-.2-1.986-1.7-1.731-3.1.216-1.1 1.772-3.2 3.286-4.3.58-.4 2.502-1.1 4.273-1.6l3.22-.9.89-1.8c1.694-3.3 5.26-5.9 8.112-5.9 1.424 0 1.726.1 2.865 1.6.315.3.909 1.1 1.319 1.6 1.263 1.5 1.976 3.4 1.785 4.6-.179 1.1.305 2.9.787 2.9.442 0 5.134 4.6 5.358 5.2.113.4.333.6.49.6.398 0 .977 2.1.996 3.6.027 2.2-.466 2.5-3.9 2.6-1.643 0-3.637.2-4.43.5l-1.444.4-.076 1.7c-.103 2.3.48 3 3.003 3.3 1.05.2 2.06.5 2.243.6.183.2.71.3 1.172.3.462 0 1.123.2 1.469.5.566.4.633.8.672 4.4l.043 3.9 1.05.3c.577.2 1.225.5 1.439.7.761.7 1.769.4 2.174-.6.21-.6.504-1.3.653-1.7.148-.3.403-2.4.565-4.6.162-2.2.493-4.6.736-5.3.242-.6.583-2.9.758-4.9.174-2 .479-3.9.676-4.1.2-.3.422-2.2.502-4.4.116-3.2.256-4.1.701-4.6.468-.5.55-1.2.512-4.4l-.045-3.9-1.293-1c-.861-.7-1.294-1.3-1.299-1.9-.01-1.1.293-1.4 1.904-2 .791-.3 2.015-.7 2.72-1 .706-.2 1.427-.6 1.604-.8.556-.7 2.344-1.8 2.81-1.8.245 0 .688.2.984.5.692.8.755 3.7.105 4.9-.279.6-.463 1.8-.45 3 .012 1.1-.2 2.6-.469 3.4-.28.7-.633 3.6-.827 6.6-.186 2.9-.51 5.5-.719 5.9-.209.4-.373 1.6-.364 2.8.01 1.1-.194 3.3-.452 4.7-.258 1.5-.601 3.9-.763 5.4-.161 1.6-.496 3.3-.743 3.9-.247.5-.532 2-.633 3.2-.1 1.2-.446 2.7-.767 3.3-.32.6-.58 1.3-.577 1.6.01.8-1.654 3.7-2.12 3.7-.215 0-.533.3-.706.6-.174.3-.756.6-1.293.7-.538.2-1.371.5-1.853.9-1.032.7-4.028 1-5.299.6zm270.713-24.3c1.993-.9 2.555-1.9 1.775-3.4-.67-1.2-1.652-1.6-3.249-1.5-1.853.1-3.371 1.3-3.357 2.6.016.9.23 1.2 1.39 2 .757.5 1.484.9 1.615.9.13 0 .953-.3 1.826-.6zm-25.681.2c1.375-.6 1.538-.8 1.54-1.7 0-1.4-1.271-3.1-3.152-4.1-1.994-1.1-2.71-1.1-3.598.1-.695.9-.701 1-.196 2.4.287.7.524 1.6.527 1.8 0 .7 1.951 2.2 2.728 2.2.337 0 1.305-.3 2.15-.7zm-11.44 1.1c.113-.5.1-1.7-.034-2.7-.19-1.3-.445-1.9-1.217-2.5-1.162-1-1.764-.9-3.14.5-.888.9-1.018 1.2-1.05 2.8-.053 2.6.296 2.9 3.043 2.9 2.185 0 2.188 0 2.396-1zm-25.558 4.8c1.108-.6 1.372-1.2 1.09-2.6-.425-2-3.009-2.6-4.262-1-.382.5-.693 1.1-.691 1.2 0 .2-.21.5-.469.7-.372.3-.393.5-.101 1 .204.4.53.8.726.9.605.4 2.754.3 3.707-.2zm40.671 3.6c.902-.7.978-1.6.183-2.3-.934-.8-2.644-.8-4.397 0-1.045.5-1.339.8-1.332 1.4 0 .5.252.9.736 1.1 1.086.4 4.231.3 4.81-.2zm-49.883 14.9c-.37-.3-.258-1.8.164-2.2.219-.1.76-.4 1.2-.5.441-.1 1.017-.4 1.28-.7.263-.2 1.201-.5 2.085-.6 3.175-.5 5.942-3 5.95-5.4.012-.7-.093-1.4-.216-1.6-.363-.5-5.922-.2-8.93.6-.714.2-1.066 0-1.94-.8l-1.067-1-.153-4.6-.152-4.5 1.389-1.5c.764-.9 1.732-2.1 2.15-2.8.42-.7.856-1.3.97-1.3.116-.1.767-.6 1.45-1.2 1.345-1.2 3.565-2.4 5.062-2.8.519-.1 1.096-.4 1.282-.7.186-.2.758-.4 1.27-.5.788-.1 1.069.1 1.836 1.3.499.8.929 1.8.956 2.3.019.5.267 1.5.533 2.2.267.7.585 2 .709 3 .123 1 .386 1.9.585 2.2.488.5 4.38.8 5.056.3.378-.2.546-1.1.647-3.2.079-1.6.345-3.2.625-3.8.268-.5.582-1.4.696-1.9.313-1.5 2.852-5.1 4.37-6.1.737-.5 1.52-1 1.74-1.2.221-.2.725-.5 1.12-.6.96-.3 1.187-.7 1.178-2.1-.012-1.2-.987-2.5-3.017-4.2-.491-.4-.896-.9-.899-1.2-.015-.9.933-2.6 2.416-4.3.76-.9 1.386-1.7 1.392-1.9.011-.1.511-.5 1.122-.9.874-.6 1.284-.6 1.917-.4.861.3 1.101.7 1.897 3.4 1.052 3.5 1.296 4.5 1.554 6.5.146 1.1.362 2.1.483 2.3.12.2 1.543.6 3.16 1 1.617.3 3.25.8 3.628 1 .379.2 1.049.5 1.489.6 1.1.4 2.595 1.4 2.6 1.9 0 .2.126.4.273.4.347 0 1.969 2.4 3.46 5.1 1.68 3 1.579 2.9 4.258 2.9 2.156 0 2.404-.1 3.008-.9.362-.4.654-1.2.649-1.6-.015-1 .815-2.1 2.832-3.9.778-.7 1.723-1.6 2.102-1.9 1.249-1.1 2.668-2 3.214-2 .296 0 1.888.5 3.538 1.2 2.438 1 3.169 1.4 3.901 2.4 1.593 2.2 4.991 3.1 6.675 1.8.447-.4.97-.6 1.163-.6.193 0 .35-.3.346-.5 0-.7-1.318-4.2-1.718-4.7-.18-.2-.478-1.4-.663-2.8-.185-1.3-.635-3-.999-3.7-.444-1-.728-2.4-.864-4.4-.11-1.6-.49-3.9-.84-5.2-.35-1.2-.641-2.7-.646-3.1-.03-2.3-1.96-5.3-3.928-6.1-.444-.2-1.172-.6-1.617-.8-1.164-.6-2.696-.5-3.376.2-.317.3-.88.6-1.25.6-.684 0-2.747 1.7-2.741 2.2 0 .2-.473.3-1.054.3-.862.1-1.251-.2-2.106-1.2-.576-.7-1.05-1.5-1.054-1.6 0-.2-.589-.9-1.3-1.4-1.053-.9-1.295-1.3-1.307-2.2-.015-.9.147-1.2.785-1.5.44-.2.8-.5.797-.6 0-.2.539-.4 1.201-.6.663-.1 2.36-.5 3.771-.8 3.555-1 9.95-1 11.507-.1.576.3 1.418.6 1.871.7 1.054.3 3.844 2.8 4.416 4.1.241.5.573 1.1.739 1.2.165.1.407.7.537 1.4.13.8.434 1.8.676 2.3.361.7.845 3.9 1.338 8.8.088.8.738 3.8 1.247 5.7.186.6.549 2.2.808 3.5.26 1.2.701 2.5.982 2.8.28.3.512.7.515 1 .015 1.2 3.342 3.3 5.276 3.2 1.687 0 4.21-1.1 5.79-2.6.899-.8 1.98-1.6 2.402-1.7.868-.2 2.28.5 2.783 1.4.613 1 1.627 1.9 2.974 2.7 1.453.8 1.98 1.9 1.428 2.9-.184.3-.583.6-.886.6-.304 0-1.322.4-2.264.8-.942.4-1.982.8-2.31.8-.33 0-2.156.5-4.059 1.1-1.903.6-5.266 1.5-7.473 2-3.904.8-9.14 2.2-9.784 2.7-.175.1-.897.3-1.604.4-2.189.4-2.376.5-2.583 1.6-.256 1.4-3.203 4.5-5.382 5.7-1.51.8-1.822.8-5.583.8-2.19 0-4.244-.1-4.564-.2-.32 0-.68-.5-.8-1s-.653-1.2-1.19-1.6c-1.026-.7-2.198-.7-4.822.1l-1.168.3-.194 3.1c-.107 1.7-.387 3.4-.623 3.8-.235.4-.566 1-.735 1.3-.17.4-1.045 1.3-1.947 2-.902.8-2.214 2-2.916 2.6-1.45 1.4-2.698 1.6-3.568.6-.32-.4-.956-.6-1.494-.6-1.08 0-3.582-1-5.156-2.1-.966-.7-2.99-4-3-4.9 0-.2-.296-.6-.653-.9-.516-.5-1.067-.7-2.661-.6-1.106 0-2.66.2-3.455.3-.795.2-2.73.5-4.3.7-1.57.2-3.32.5-3.886.8-.566.2-1.644.5-2.396.6-1.975.4-2.576 1.1-2.554 3.1.015 1.1-.146 1.8-.44 2-.252.2-.543.8-.646 1.3-.271 1.2-2.904 3.8-4.78 4.6-.88.4-2.133 1-2.784 1.3-.976.6-1.826.7-4.846.7-2.015 0-3.76-.1-3.88-.2zm-25.529 2.8l-.735-.5.645-.9c.355-.5 1.184-1 1.842-1.3 2.243-.7 3.756-1.6 5.589-3.3 1.007-1 1.828-2 1.825-2.3 0-.3.387-1 .868-1.6.837-.9.871-1.1.808-4.2-.065-3.2-.231-3.9-1.423-5.7-.568-.9-2.487-2.3-4.445-3.3-1.298-.6-1.763-1.9-1.091-3 .28-.4 1.17-2.1 1.977-3.8.806-1.6 1.64-3.3 1.852-3.7.58-1.1 2.022-1.2 2.994-.1.92 1 2.406 3.7 2.412 4.2 0 .3.283.7.624 1 .735.7 2.32 3.4 2.326 4 0 .3.387 1.1.853 1.8.58.9.858 1.8.88 2.8.022.8.25 2 .516 2.7.776 1.8.526 8-.394 9.7-.387.7-.809 1.3-.938 1.3-.129 0-.663.6-1.186 1.3-.998 1.3-4.405 3.7-5.307 3.7-.29 0-.739.3-.999.7-.443.7-.733.7-4.615.9-3.432.1-4.268 0-4.878-.4zm-29.37 1.9c-1.041-1-1.267-1.5-1.278-2.5-.014-1.1.191-1.5 1.21-2.6 1.881-1.9 2.8-1.9 6.046-.3 3.102 1.6 4.15 1.7 4.428.6.269-1 2.055-2 3.751-2 1.073 0 1.68.2 2.54.8 1.078.9 1.13 1 1.157 3 .017 1.9-.01 2-1.246 3.1-1.189 1.1-1.38 1.1-2.854 1-1.876-.2-3.001-1.1-3.307-2.5-.221-1.1-.598-1.4-.88-.6-.09.2-.552.5-1.025.6-.873.2-2.355 1.2-3.407 2.1-.398.4-1.095.6-2.225.6-1.526 0-1.738-.1-2.91-1.3zm-27.068-16.7c.711-.3.863-.5.708-1-.11-.3-.36-1.3-.557-2.1-.309-1.2-.469-1.4-1.15-1.4-.734 0-2.099.7-3.34 1.9-.615.5-.995 1.8-.663 2.3.732 1 2.883 1.1 5.002.3zm-24.845 9.4c.714-.6.73-.7.702-6.4l-.03-5.8-.868-.8c-.832-.7-1.13-.7-7.057-1-3.403-.1-6.746-.4-7.429-.6-.895-.3-1.695-.3-2.868-.1-1.06.2-2.321.2-3.616 0-4.812-.8-8.015-.2-9.175 1.7-.547.9-.549 1-.026 1.8.304.5.917 1 1.362 1.1.445 0 1.482.3 2.305.5.912.3 2.86.5 4.992.5 1.923 0 5.162.1 7.199.2 2.036.1 4.867.3 6.291.3 1.856 0 2.849.2 3.505.6l.916.6-.188 3c-.18 2.8-.156 3 .563 3.6.866.7 1.902 1.3 2.368 1.3.177 0 .65-.2 1.053-.5zm-2.72 9.8c0-.1-.806-.6-1.787-1-1.896-.9-3.522-2.2-4.514-3.7-.692-1-1.504-3.6-1.523-4.9 0-.6-.207-.8-.739-1-2.188-.4-7.745-1.1-11.838-1.3-2.568-.1-7.376-.5-10.686-.8-7.188-.7-9.932-.6-10.891.4-.363.4-.816 1.2-1.007 1.7-.19.6-.893 1.7-1.56 2.6-.668.9-1.213 1.8-1.211 2 0 .1-.142.3-.318.3-.177 0-.583.2-.901.5-.818.8-2.471 2-3.327 2.3-.399.2-1.085.6-1.524.8-1.155.7-9.205.7-10.5.1-.51-.2-1.37-.4-1.91-.4-.542 0-1.265-.2-1.607-.5-.516-.3-.569-.5-.31-1.3.371-1 1.447-1.3 5.604-1.3 2.31-.1 2.986-.2 4.334-.9 1.614-.9 4.37-2.9 4.585-3.4.064-.1.385-.5.714-.7.329-.3.685-1 .791-1.6.107-.6.473-1.7.814-2.3.716-1.5.629-2.3-.588-5.8-1.252-3.6-1.696-4.4-3.123-5.6-1.797-1.5-1.754-2.2.256-4.2.88-.9 2.114-2.4 2.741-3.4 1.022-1.5 1.247-1.6 2.146-1.6.857.1 1.137.4 1.921 1.8 1.208 2.2 2.867 6.1 2.874 6.7 0 .2.215.9.47 1.4.256.5.636 1.5.844 2.1.513 1.5.8 1.7 3.464 1.9 2.796.3 2.83.2 3.076-3.5.094-1.5.317-2.8.495-3 .178-.1.32-.6.317-.9-.01-.7-1.612-5.1-2.02-5.6-.545-.5-.324-2.1.487-3.4.442-.8.922-1.4 1.066-1.4.145 0 .812-.3 1.483-.8 1.677-1.1 4.19-1.4 5.265-.6.698.6.806.9.964 3.4.162 2.4.261 2.8 1.028 3.4.467.4 1.2.7 1.629.7.428 0 1.042.2 1.363.5.486.4 1.62.5 6.788.5 7.146.1 11.141.3 11.649.6.195.1 1.44.2 2.768.2 1.327 0 4.222.1 6.434.2 3.872.2 4.058.3 4.999 1.2l.977.9.071 4.1c.085 4.7.361 5.3 2.434 5.3 1.821 0 2.336-.5 2.479-2.7.068-1 .31-1.9.537-2.1.227-.2.627-.8.889-1.5.542-1.2 2.782-3.5 3.823-3.8.384-.1.984-.5 1.335-.8.35-.3 1.071-.6 1.601-.7 2.315-.4 4.863-1.3 5.465-1.8.418-.4 1.192-.7 2.152-.7 1.231-.1 1.616.1 2.153.7.77.8.91 1.5 1.213 5.7.126 1.8.388 3.6.584 4 .196.5.442 2.7.548 4.9l.191 4-1.004 1.3-1.005 1.3-10.407.1c-5.724.1-10.909.2-11.52.3-1.21.3-1.497.9-1.472 3.3.014.7-.205 1.3-.596 1.7-.334.3-.691.8-.793 1.2-.193.8-2.324 2.4-3.696 2.8-.44.2-1.017.5-1.28.7-.754.6-3.17 1.7-3.69 1.7-.26 0-.475-.1-.477-.3z" fill-rule="evenodd"/><g fill-rule="evenodd"><path d="M256.43-352.13c2.86.167-3.868-15.307-3.868-15.307 7.569 7.737 36.163 9.587 36.163 9.587-17.156-7.568-34.313-64.756-32.294-110.338 1.85-45.75-6.56-63.747-13.288-70.475-8.578-8.578-36.163-16.147-54.328-17.156-10.26-.505-8.578 7.737-8.578 7.737-19.007-4.878-38.013-6.728-46.591-1.01-8.074 5.383-9.756 32.295-3.87 27.585 14.298-11.437 26.745-1.009 35.323 11.438 7.569 10.933 7.064 41.881-3.869 78.044C149.793-394.012 118.508-356 118.508-356c16.988 0 40.872-15.138 40.872-15.138l-5.719 23.716c17.997-8.578 32.295-21.866 32.295-21.866l17.156 17.997c5.718-7.569 17.156-17.997 17.156-17.997s14.297 15.138 36.163 17.156z" fill="#f8c300" stroke="#000" stroke-width="5.442255100000001"/><path d="M186.965-461.628s-9.588 70.475-27.585 90.49M202.102-463.478s-3.7 71.316-16.146 94.191M215.558-460.619s0 78.044 4.71 91.332M232.546-456.75s3.869 65.597 20.016 89.313" fill="none" stroke="#000" stroke-width="5.6769004"/><path d="M169.64-495.772c-.84-6.224-2.355-11.102-4.541-14.297-8.578-12.447-21.025-22.875-35.322-11.438 0 0 4.878-15.138 15.306-15.642 8.073-.505 26.407 6.055 42.554 33.64 0 0-11.942-2.692-14.801-.169-5.382 4.71-3.196 7.906-3.196 7.906z" stroke="#000" stroke-width="1.5827586"/><path d="M128.263-540.177c1.178-3.868 3.028-7.4 5.383-8.914 8.578-5.72 27.584-3.869 46.59 1.009 0 0-1.681-8.242 8.579-7.737 18.165 1.009 45.75 8.578 54.328 17.156 2.018 2.187 4.373 5.382 6.392 10.26h-.337c-4.205-5.887-16.147-5.55-19.006-5.214-4.542.504-7.401.336-13.456 1.85-2.86.673-7.233 1.514-9.588 3.364-1.85 1.514-3.363 7.065-6.223 7.065-4.541 0-4.205-1.178-5.382-2.523-1.514-1.85-2.355-4.542-3.869-4.374-4.71.841-12.279-2.859-21.866-10.428-9.587-7.569-13.287-9.42-25.734-8.578-12.279 1.01-16.147 7.905-16.147 7.905z" stroke="#000" stroke-width="1.5827586"/><path d="M198.57-529.076c2.86 0 5.046-2.186 5.046-5.046 0-2.86-2.187-5.045-5.046-5.045-2.691 0-5.046 2.186-5.046 5.045 0 2.86 2.355 5.046 5.046 5.046z" fill="#f8c300" stroke="#1f1a17" stroke-width="1.5827586"/></g><path d="M324.509-291.23a60.898 60.898 0 0 1-3.765.114c-27.557 0-91.564-14.136-116.23-35.333-25.842 19.58-90.903 35.333-118.014 35.333-1.269 0-2.527-.156-3.774-.383-.06 6.176.259 12.577.642 18.401 1.435 21.761 5.25 43.6 11.048 64.616 18.24 66.142 55.58 122.35 109.115 164.991 53.58-42.675 90.96-98.932 109.243-165.126 5.802-21.01 9.63-42.849 11.078-64.613.382-5.7.698-11.952.657-18z" fill="none"/><path d="M324.509-291.23a60.898 60.898 0 0 1-3.765.114c-27.557 0-91.564-14.136-116.23-35.333-25.842 19.58-90.903 35.333-118.014 35.333-1.269 0-2.527-.156-3.774-.383-.06 6.176.259 12.577.642 18.401 1.435 21.761 5.25 43.6 11.048 64.616 18.24 66.142 55.58 122.35 109.115 164.991 53.58-42.675 90.96-98.932 109.243-165.126 5.802-21.01 9.63-42.849 11.078-64.613.382-5.7.698-11.952.657-18z" fill="none"/><g fill="#fff" stroke="#000"><path d="M203.786-34.077c140.088-107.747 127.803-265.577 127.803-265.577-3.697.74-7.208 1.11-10.904 1.11-29.386 0-100.55-16.811-116.9-38.165-17.515 19.327-88.059 38.165-117.258 38.165-3.697 0-7.393-.37-10.904-1.11 0 0-11.926 157.83 128.163 265.577z" stroke-width="4.8439454" fill="#f8c300"/><path d="M324.448-291.2a60.618 60.618 0 0 1-3.763.116c-27.545 0-91.528-14.133-116.189-35.322-25.832 19.575-90.87 35.323-117.97 35.323-1.273 0-2.527-.156-3.772-.385-.063 6.175.258 12.573.642 18.394 1.433 21.755 5.248 43.587 11.042 64.594 18.236 66.118 55.56 122.305 109.075 164.93 53.562-42.659 90.926-98.9 109.202-165.065 5.804-21.004 9.631-42.834 11.078-64.588.38-5.702.698-11.95.655-17.997z" stroke-width="1.05763"/></g><path d="M82.68-291.652s.076 6.956.148 8.412c.071 1.452.313 6.714.497 9.18.188 2.467.9 11.536 1.128 13.319.228 1.783 1.184 10.209 1.526 12.162.342 1.955 1.555 9.88 1.797 11.036.242 1.156 1.41 7.442 1.895 9.625.486 2.182 2.909 12.548 3.366 14.26.456 1.71 2.466 9.01 3.122 11.135.657 2.125 3.68 11.692 4.349 13.688.671 1.997 3.936 10.88 4.806 13.147.87 2.267 4.463 10.979 5.404 12.918.94 1.94 5.703 12.263 6.573 13.931.87 1.668 6.118 11.194 7.243 13.19 1.126 1.997 7.388 12.69 8.084 13.66.699.968 6.333 9.724 7.615 11.464 1.283 1.74 7.428 10.167 9.14 12.377 1.71 2.21 6.874 8.769 8.897 11.02 2.026 2.254 2.475 2.796 3.274 3.695.797.899 1.498 1.723 1.498 1.723v-224.366c-26.786 7.732-53.245 14.345-80.362 14.426z" fill="#ce1126" fill-rule="evenodd"/><path d="M324.54-291.54s-.042 5.304-.17 7.927a729.368 729.368 0 0 1-.57 10.268c-.2 3.035-.841 10.309-1.096 12.404-.258 2.096-1.07 9.497-1.399 11.45-.327 1.953-1.882 11.977-2.153 13.232-.27 1.255-2.096 10.424-2.538 12.063-.443 1.64-2.782 11.579-3.58 14.415-.798 2.838-3.549 12.348-4.433 14.915-.885 2.566-5.063 14.615-5.618 16.028-.555 1.41-4.633 11.278-5.875 14.13-1.24 2.851-5.902 12.718-6.859 14.6-.954 1.882-6.972 13.175-7.6 14.331-.626 1.155-8.256 13.973-9.323 15.528-1.071 1.553-8.9 12.845-10.467 15.027-1.569 2.182-9.096 12.136-11.122 14.46-2.026 2.323-5.918 6.944-6.545 7.67l-1.04 1.202v-223.93c26.748 7.646 53.246 15.793 80.387 14.28z" fill-rule="evenodd"/><path d="M324.448-291.2a60.613 60.613 0 0 1-3.763.116c-27.547 0-92.23-14.133-116.89-35.322-25.833 19.574-90.17 35.322-117.268 35.322-1.274 0-2.528-.155-3.773-.384-.063 6.175.258 12.572.642 18.394 1.433 21.755 5.248 43.585 11.042 64.592 18.236 66.12 55.831 122.308 109.346 164.93 53.561-42.657 90.654-98.898 108.931-165.064 5.804-21.005 9.631-42.834 11.078-64.589.38-5.7.698-11.948.655-17.997z" fill="none" stroke="#000" stroke-width="2.50023732"/></g></svg>